<?xml version="1.0" encoding="UTF-8"?>
<!DOCTYPE svg PUBLIC "-//W3C//DTD SVG 1.1//EN" "http://www.w3.org/Graphics/SVG/1.1/DTD/svg11.dtd">
<!-- Creator: CorelDRAW 2020 (64-Bit) -->
<svg xmlns="http://www.w3.org/2000/svg" xml:space="preserve" width="49.2722mm" height="49.2722mm" version="1.1" style="shape-rendering:geometricPrecision; text-rendering:geometricPrecision; image-rendering:optimizeQuality; fill-rule:evenodd; clip-rule:evenodd"
viewBox="0 0 2849.23 2849.23"
 xmlns:xlink="http://www.w3.org/1999/xlink"
 xmlns:xodm="http://www.corel.com/coreldraw/odm/2003">
 <defs>
  <style type="text/css">
   <![CDATA[
    .str0 {stroke:#332C2B;stroke-width:115.65;stroke-miterlimit:22.9256}
    .fil0 {fill:none}
   ]]>
  </style>
 </defs>
 <g id="图层_x0020_1">
  <metadata id="CorelCorpID_0Corel-Layer"/>
  <g id="_1928418104016">
   <circle class="fil0 str0" cx="1424.62" cy="1424.62" r="1366.79"/>
   <g>
    <path class="fil0 str0" d="M467.8 1020.96c258.29,0 468.34,-1.3 726.62,0.19 36.15,0.21 57.05,13.77 57.05,62.86 0,56.22 0.46,65.15 0.02,121.38 -0.04,5.52 1.17,59.2 -59.1,58.53 -227.04,-0.04 -366.39,-0.08 -593.43,-0.1 -7.32,0 -51.9,3.19 -50.56,46.17 0,49.23 0,84.72 0,133.95 0,14.21 -2.3,55.5 47.78,56.39 313.09,0 591.33,0 904.42,0 35.31,-3.22 69.56,-4.85 93.21,-46.54"/>
    <path class="fil0 str0" d="M1542.36 1494.27c22.1,-10.7 58.69,-19.43 62.17,-86.93 0,-121.28 -0.45,-218.1 -0.45,-339.38 0,-7.41 -3.06,-47.65 50.55,-47.97 111.31,0 129.52,0.41 240.83,0.41 86.01,0.01 81.96,12.79 83.78,83.41 0.32,82.19 1.04,134.85 1.35,217.04 0.01,3.82 2.44,51.7 -7.12,61.92l-357.48 451.18"/>
    <line class="fil0 str0" x1="2062.56" y1="1835.45" x2="1871.56" y2= "1511.9" />
    <line class="fil0 str0" x1="2220.72" y1="1008.24" x2="2223.25" y2= "1840.94" />
    <line class="fil0 str0" x1="2381.34" y1="1008.21" x2="2381.43" y2= "1841.02" />
    <line class="fil0 str0" x1="898.35" y1="1018.22" x2="899.32" y2= "1502.14" />
    <path class="fil0 str0" d="M478.02 1840.96l0.31 -162.11c0,0 -0.59,-48.09 62.29,-48.09 62.88,0 58.29,47.11 58.29,47.11l-0.03 96.23c-0.13,11.52 -6.82,53.8 64.51,54.47 71.32,0.67 149.68,-1.33 149.68,-1.33l378.98 1.33c87.13,0.96 128.44,-29.43 129.42,-97.8 0.46,-31.8 -11.96,-81.7 -59.05,-94.77 -17.16,-4.76 -45.32,-4.47 -78.04,-4.47 -119.64,0 -297.07,0 -297.07,0"/>
   </g>
  </g>
 </g>
</svg>
