<?xml version="1.0" encoding="UTF-8"?>
<!DOCTYPE svg PUBLIC "-//W3C//DTD SVG 1.1//EN" "http://www.w3.org/Graphics/SVG/1.1/DTD/svg11.dtd">
<!-- Creator: CorelDRAW 2020 (64-Bit) -->
<svg xmlns="http://www.w3.org/2000/svg" xml:space="preserve" width="49.2722mm" height="49.2722mm" version="1.1" style="shape-rendering:geometricPrecision; text-rendering:geometricPrecision; image-rendering:optimizeQuality; fill-rule:evenodd; clip-rule:evenodd"
viewBox="0 0 4646.98 4646.98"
 xmlns:xlink="http://www.w3.org/1999/xlink"
 xmlns:xodm="http://www.corel.com/coreldraw/odm/2003">
 <defs>
  <style type="text/css">
   <![CDATA[
    .str0 {stroke:#FEFEFE;stroke-width:188.62;stroke-miterlimit:22.9256}
    .fil0 {fill:none}
   ]]>
  </style>
 </defs>
 <g id="图层_x0020_1">
  <metadata id="CorelCorpID_0Corel-Layer"/>
  <g id="_1928412080576">
   <circle class="fil0 str0" cx="2323.49" cy="2323.49" r="2229.18"/>
   <g>
    <path class="fil0 str0" d="M762.96 1665.14c421.26,0 763.85,-2.11 1185.08,0.3 58.96,0.34 93.04,22.46 93.04,102.53 0,91.7 0.75,106.25 0.04,197.96 -0.07,9.01 1.91,96.56 -96.4,95.46 -370.29,-0.07 -597.57,-0.12 -967.86,-0.17 -11.94,0 -84.65,5.2 -82.47,75.31 0,80.3 0,138.18 0,218.47 0,23.18 -3.75,90.51 77.92,91.96 510.64,0 964.43,0 1475.07,0 57.59,-5.24 113.45,-7.91 152.02,-75.91"/>
    <path class="fil0 str0" d="M2515.53 2437.09c36.05,-17.46 95.73,-31.69 101.4,-141.78 0,-197.8 -0.73,-355.72 -0.73,-553.52 0,-12.09 -5,-77.71 82.44,-78.23 181.54,0 211.24,0.67 392.78,0.67 140.27,0.02 133.68,20.86 136.64,136.05 0.53,134.05 1.69,219.94 2.21,353.98 0.02,6.22 3.98,84.32 -11.61,100.99l-583.04 735.85"/>
    <line class="fil0 str0" x1="3363.95" y1="2993.55" x2="3052.44" y2= "2465.85" />
    <line class="fil0 str0" x1="3621.91" y1="1644.39" x2="3626.04" y2= "3002.49" />
    <line class="fil0 str0" x1="3883.87" y1="1644.36" x2="3884.02" y2= "3002.63" />
    <line class="fil0 str0" x1="1465.17" y1="1660.68" x2="1466.75" y2= "2449.93" />
    <path class="fil0 str0" d="M779.63 3002.54l0.51 -264.4c0,0 -0.96,-78.44 101.59,-78.43 102.56,0 95.07,76.84 95.07,76.84l-0.05 156.95c-0.22,18.8 -11.12,87.75 105.21,88.83 116.32,1.08 244.13,-2.17 244.13,-2.17l618.1 2.17c142.1,1.57 209.48,-48.01 211.08,-159.51 0.75,-51.87 -19.5,-133.24 -96.31,-154.57 -27.98,-7.77 -73.92,-7.29 -127.27,-7.29 -195.12,0 -484.5,0 -484.5,0"/>
   </g>
  </g>
 </g>
</svg>
